<svg xmlns="http://www.w3.org/2000/svg" viewBox="0 0 16 16" width="16" height="16" fill="#FFFFFF">
  <path d="M15.82 9.09l-1.34-2.12-.13-.18c-.21-.31-.55-.5-.92-.5l-2.15-.03-.13.26-2.56 4.11-.13.24 1.07 1.73c.21.31.55.5.92.5h3.01c.37 0 .73-.18.92-.5l.1-.16 1.34-2.15c.21-.34.21-.87 0-1.2zm-.42.92l-1.34 2.15c-.05.05-.1.05-.13.05-.03 0-.1 0-.16-.08l-1.34-2.15c-.03-.03-.03-.05-.05-.08 0-.03-.03-.05-.03-.08-.03-.1-.03-.21 0-.34.03-.05.03-.1.08-.16l1.34-2.12c.03-.05.08-.08.1-.08h.03c.03 0 .1 0 .16.08l1.34 2.12c.13.21.13.47 0 .68z" />
  <path d="M11.83 3.95c.21-.34.21-.81 0-1.15l-1.34-2.12-.1-.18C10.17.18 9.84 0 9.47 0H6.46c-.37 0-.71.18-.92.5L.16 9.13c-.1.16-.16.37-.16.55 0 .21.05.39.16.58l1.44 2.3c.21.34.55.5.92.5h3.01c.37 0 .73-.18.92-.5l.1-.18 1.07-1.73 3.17-5.08 1.04-1.62zm-.31-.55c0 .1-.03.21-.1.31l-5.26 8.43c-.05.08-.13.08-.16.08-.03 0-.1 0-.16-.08l-1.34-2.15c-.13-.18-.13-.45 0-.63l5.26-8.43c.05-.08.13-.08.16-.08.03 0 .1 0 .16.08l1.34 2.12c.05.1.1.24.1.34z" />
</svg>
