<svg xmlns="http://www.w3.org/2000/svg" viewBox="0 0 27 28" width="16" height="16" fill="#ffffff">
  <path d="M11.213 18.712H1.575v3.282h9.638v-3.282ZM25.53 7.223H14.516v3.283H25.53V7.223ZM16.911.111 8.733 8.235l2.337 2.321 8.177-8.124-2.336-2.32Z" />
  <path d="m2.503 10.202 6.28 6.239-2.336 2.321-6.28-6.239 2.336-2.32Zm7.922 17.407 6.62-6.576-2.337-2.321-6.62 6.576 2.337 2.321Zm13.969-7.432-7.4-7.35 2.337-2.321 7.4 7.35-2.337 2.32ZM8.733 12.694V4.762H5.43v7.932h3.304Z" />
  <path d="M20.3 26.097V16.25h-3.305v9.847h3.304Z" />
</svg>
