<svg xmlns="http://www.w3.org/2000/svg" viewBox="0 0 95 59" width="26" height="16" fill="none">
<g clip-path="url(#clip0_268_2)">
<mask id="mask0_268_2" style="mask-type:luminance" maskUnits="userSpaceOnUse" x="0" y="0" width="95" height="59">
<path d="M95 0H0V59H95V0Z" fill="white"/>
</mask>
<g mask="url(#mask0_268_2)">
<path fill-rule="evenodd" clip-rule="evenodd" d="M28.9904 23.7578H24.4188V26.1223H28.9904V23.7578ZM26.6489 28.4868H22.6348V32.878H26.6489V28.4868ZM31.2204 31.4143H35.9035V36.4811H40.5866V38.733H42.9282V43.1242H47.1653V47.628H75.5984V54.4964H70.3578V56.7483H49.5068V54.4964H42.3707V49.9925H38.0221V45.6013H35.792V43.3494H33.4505V36.4811H31.2204V31.4143Z" fill="#9CDAE0"/>
<path fill-rule="evenodd" clip-rule="evenodd" d="M40.2524 17.4521H90.763V38.5075V39.0705V40.872H88.31V43.3491V45.4884H85.9684V47.6277H83.6269V50.1048H81.2853V52.3567H62.5529V50.1048H56.3088V47.6277H49.5071V45.4884H47.0541V43.3491H40.2524V39.0705V38.0571V17.4521Z" fill="#B7E2F4"/>
<path fill-rule="evenodd" clip-rule="evenodd" d="M49.953 -0.225098H70.4694V1.68902H73.257V6.19284H78.9436V8.44475H83.5152V12.836H85.9682V23.4199H83.5152H80.2816H78.9436H77.8286H73.257H70.4694H67.5704H65.3403H58.5387H52.629V29.7253H35.6807V14.7501H38.0222V8.44475H44.8239V6.19284H47.0539V3.94093H49.953V-0.225098ZM24.4189 15.0879H26.649V19.0287H28.9905V22.1814H26.649V23.7577H24.4189V15.0879Z" fill="#D6BFA2"/>
<path fill-rule="evenodd" clip-rule="evenodd" d="M66.6781 1.91406H70.6922V4.05338H66.6781V1.91406ZM66.6781 6.30528H60.5455V4.05338H66.6781V6.30528ZM66.6781 6.30528H68.7967V8.4446H73.1453V6.19269H75.4868V8.4446H73.2568V10.5839H79.5009V13.061H77.6054V17.4522H75.4868V13.061H70.9152V10.5839H66.6781V8.55719V8.4446V6.30528ZM83.738 12.9484H79.7239V17.3396H83.738V12.9484ZM70.9152 19.4789H67.6817V23.4198V23.5324V27.4732H65.1171V29.4999H58.427H56.3084V27.4732H54.0784V23.4198H51.8483V27.4732H49.5068V29.3873H47.0537V31.7518H49.5068V36.2557H51.8483V34.1164H53.9669V38.6202H56.3084V40.8721H58.427H60.5455V38.5076H58.427V36.2557H62.6641V38.6202H65.0056V40.8721H66.6781V43.124H71.0267V40.8721H73.2568V43.124H81.731V40.8721H86.0796H92.7697V24.8835H82.9575V19.4789H75.9328V23.4198H70.9152V19.4789ZM81.731 27.248H75.9328V27.4732V29.4999H73.8143V34.0038L75.2638 36.0868H76.4346V38.5076H81.731V27.248ZM38.9141 22.7442H40.3636V24.8835H44.6007V25.5591H38.9141V24.8835V22.7442ZM85.4105 17.3396H88.5326V21.6183H85.4105V17.3396ZM51.8483 6.30528H54.0784V8.4446H51.8483V6.30528ZM66.6781 10.6965H62.5526V12.8358H60.5455V15.0877H65.0056V17.227H70.9152V15.0877H68.7967V12.8358H66.6781V10.6965ZM56.3084 10.6965H60.434V12.9484H56.3084V10.6965ZM65.0056 17.3396H60.657V21.6183H65.0056V17.3396Z" fill="#FFFFF3"/>
<path fill-rule="evenodd" clip-rule="evenodd" d="M47.054 10.6968H49.507V12.8361H47.054V10.6968ZM24.419 12.8361H20.6279V26.1223H24.419V12.8361ZM44.6009 24.8838H38.9143V22.7445H38.1338V24.8838H35.9038V29.3876H38.0223V33.8914H44.6009V29.3876V24.8838ZM54.0786 12.9487H51.7371V15.088H54.0786V12.9487ZM44.9354 36.2559H49.507V38.6204H44.9354V36.2559ZM62.6643 36.2559H58.4272V38.5078H60.5458V40.7598H58.4272V43.1243H62.5528V45.3762H66.6784V43.1243V40.7598H62.6643V38.5078V36.2559ZM53.9671 38.6204H56.3087V40.8723H53.9671V38.6204ZM66.7899 45.4888H70.9155V47.7407H66.7899V45.4888ZM77.6056 45.4888H75.4871V43.1243H70.9155V45.4888H73.257V47.6281H77.6056V45.4888ZM77.6056 45.4888H83.8498V43.1243H86.0798V40.8723H81.7312V43.1243H77.6056V45.4888ZM90.6514 36.3685H88.5329V38.5078H90.6514V36.3685ZM77.8286 25.109H81.7312V27.2483H75.9331L76.1561 26.7416L77.8286 25.109ZM92.7699 31.7521H90.6514V33.8914H92.7699V31.7521Z" fill="#FFE295"/>
<path fill-rule="evenodd" clip-rule="evenodd" d="M24.419 15.9888H22.5234V17.3399V19.4792H26.5375V17.3399H24.419V15.9888Z" fill="#FFFFF3"/>
<path fill-rule="evenodd" clip-rule="evenodd" d="M44.7124 10.584H42.3708L40.3638 12.6107V12.9485H44.7124V10.584ZM31.3321 19.479H33.4506V23.1947H31.3321V19.479ZM28.9905 28.4867H31.2206V30.7386H28.9905V28.4867ZM40.2523 36.2557H37.9107V38.5076H40.2523V36.2557ZM86.0797 43.1241H83.8497V45.4886H86.0797V43.1241ZM81.2851 47.7405H79.0551V50.105H81.2851V47.7405ZM75.5985 49.9924H78.8321V52.2443H75.5985V49.9924ZM51.737 54.4962H49.507V56.7481H51.737V54.4962ZM45.7159 45.4886H49.507V47.7405H45.7159V45.4886ZM26.649 30.626H24.4189V32.8779H26.649V30.626Z" fill="#213260"/>
<path d="M1.56089 13.061H-0.223145V14.9752H1.56089V13.061Z" fill="#FFF3CC"/>
<path d="M5.24023 19.5918H3.6792V21.5059H5.24023V19.5918Z" fill="#FFF3CC"/>
<path d="M8.80873 19.5918H7.4707V21.5059H8.80873V19.5918Z" fill="#FFF3CC"/>
<path d="M13.0455 47.9658H9.25439V49.8799H13.0455V47.9658Z" fill="#FFF3CC"/>
<path d="M30.9974 47.9658H15.1641V49.8799H30.9974V47.9658Z" fill="#FFF3CC"/>
<path d="M24.6418 43.687H22.9692V45.6011H24.6418V43.687Z" fill="#FFF3CC"/>
<path d="M33.4503 43.4619H28.9902V45.6012H33.4503V43.4619Z" fill="#FFF3CC"/>
<path d="M3.45657 47.9658H0V49.8799H3.45657V47.9658Z" fill="#FFF3CC"/>
<path d="M31.2207 41.5479H5.5752V43.462H31.2207V41.5479Z" fill="#FFF3CC"/>
<path d="M20.6278 19.5918H9.47754V21.5059H20.6278V19.5918Z" fill="#FFF3CC"/>
<path d="M11.0387 26.7979H0V28.712H11.0387V26.7979Z" fill="#FFF3CC"/>
<path d="M20.6276 30.9639H9.25439V32.878H20.6276V30.9639Z" fill="#FFF3CC"/>
<path d="M28.9907 37.269H7.4707V39.1832H28.9907V37.269Z" fill="#FFF3CC"/>
<path d="M5.35177 37.269H1.78369V39.1832H5.35177V37.269Z" fill="#FFF3CC"/>
<path d="M5.46324 13.061H3.6792V14.9752H5.46324V13.061Z" fill="#FFF3CC"/>
<path d="M9.14292 13.061H7.35889V14.9752H9.14292V13.061Z" fill="#FFF3CC"/>
<path d="M1.56103 19.5918H0V21.5059H1.56103V19.5918Z" fill="#FFF3CC"/>
<path d="M20.6279 13.061H11.2617V14.9752H20.6279V13.061Z" fill="#FFF3CC"/>
<path d="M33.4504 12.8359H27.9868V14.9753H33.4504V12.8359Z" fill="#FFF3CC"/>
<path d="M3.45623 30.9639H1.78369V32.878H3.45623V30.9639Z" fill="#FFF3CC"/>
<path d="M14.8298 26.7979H13.1572V28.712H14.8298V26.7979Z" fill="#FFF3CC"/>
<path d="M1.56103 41.5479H0V43.462H1.56103V41.5479Z" fill="#FFF3CC"/>
<path fill-rule="evenodd" clip-rule="evenodd" d="M51.7371 1.91406H49.73V4.05338H51.7371V1.91406ZM44.8239 4.05338H47.1655V6.30528H44.8239V8.4446H42.4824V6.19269H44.8239V4.05338ZM35.7922 12.8358H38.0223V17.227H35.7922V24.7709H33.5622V26.1221V28.4866V32.0896H31.2207V28.4866H28.9906V26.1221H31.2207V23.1946H33.4507V19.4789H31.3322V17.3396H33.4507V14.9751H35.7922V12.8358ZM38.0223 12.8358L40.0293 10.5839H38.0223V12.8358ZM26.6491 26.1221H20.6279V28.4866H26.6491V26.1221ZM47.054 27.3606H44.6009V30.8511H47.054V27.3606ZM40.1408 31.6393H42.2594V33.8912H40.1408V31.6393ZM33.4507 36.706H31.2207V39.0706H33.4507V36.706ZM33.4507 40.9847H35.7922V43.3492H33.4507V40.9847ZM38.0223 45.4885H35.7922V47.7404H38.0223V45.4885ZM44.9354 52.2442H47.1655V54.4961H44.9354V52.2442ZM44.7124 17.3396H42.4824V18.2404L40.2523 20.3797H42.2594V21.7309H44.7124V20.7175V20.3797V17.4522H47.1655V15.0877H44.7124V17.3396ZM47.054 21.7309H49.507L48.7265 23.4198H47.054L44.7124 24.8835V22.7442H44.8239L47.054 20.6049V21.7309ZM58.4272 1.91406H60.5458V4.05338H58.4272V1.91406ZM49.507 8.4446H54.0786V10.6965V12.9484H51.7371V10.6965H49.507V8.4446ZM58.4272 6.19269H56.3087V8.4446H58.4272V6.19269ZM60.4343 8.4446H62.5528V10.6965H60.4343V8.4446ZM66.6784 6.30528H64.6714V8.55719H66.6784V6.30528ZM66.6784 10.5839H70.9155V12.8358H66.6784V10.5839ZM73.1455 6.19269H70.804V8.4446H73.1455V6.19269ZM73.1455 6.19269H75.4871V3.94078H73.1455V6.19269ZM77.6056 8.4446H75.4871V10.5839H77.6056V8.4446ZM77.6056 13.061H79.7242V15.2003H77.6056V13.061ZM75.4871 15.0877H73.257V17.3396H75.4871V15.0877ZM70.9155 19.3664H73.1455V21.6183H70.9155V19.3664ZM79.8357 19.4789L77.6056 21.6183V23.4198H79.8357V19.4789ZM28.9906 17.227H26.5376V19.4789H28.9906V17.227ZM26.6491 21.3931H28.9906V23.7576H25.088V22.9694H25.757V22.519H26.0915V22.0686H26.6491V21.3931ZM26.5376 12.8358H24.419V15.0877H26.5376V12.8358ZM42.2594 8.4446H40.2523V10.6965L42.2594 8.4446ZM51.7371 17.3396H49.73L51.7371 15.0877V17.3396ZM54.0786 19.4789L49.507 24.0954V25.3902H51.8486V23.4198H54.0786V19.4789Z" fill="#6D6A94"/>
<path fill-rule="evenodd" clip-rule="evenodd" d="M58.4269 -0.225098H49.5068V1.68902H47.1652V4.05353H49.7298V1.91422H58.4269V-0.225098ZM42.4821 4.16612H44.8237V6.19284H42.4821V8.44475H40.2521V10.5841H38.022V8.33215H40.2521V6.08025H42.4821V4.16612ZM35.792 12.836V10.5841H38.022V12.836H35.792ZM33.4504 14.9753V12.836H35.792V14.9753H33.4504ZM28.9903 26.1222V17.1146H31.3319V14.9753H33.4504V17.3398H31.3319V26.1222H28.9903ZM35.792 43.3493V45.6012H33.4504V43.4619H31.2204V39.1833H28.9903V30.9638H27.9868V32.9906H26.5373V35.1299H22.5232V32.9906H20.6276V28.4867H22.6347V32.878H26.5373V30.7386H26.6488V26.1222H28.9903V30.7386H31.2204V39.0707H33.4504V43.3493H35.792ZM35.792 43.3493V40.9848H37.9105V43.3493H35.792ZM22.5232 10.6967H26.4258V12.836H22.6347V15.0879H20.6276V12.836H22.5232V10.6967ZM27.9868 12.836H26.5373V17.2272H27.9868V12.836ZM49.5068 38.6203H44.9352V40.8722H49.5068V38.6203ZM66.5666 47.628H62.664V49.8799H66.5666V47.628ZM68.6852 49.9925H71.0267V52.2444H68.6852V49.9925ZM60.5455 -0.225098H70.6922V1.68902H73.2568V4.05353H70.6922V1.91422H60.5455V-0.225098ZM75.4868 4.05353H78.8319V6.08025H81.1734V8.33215H83.6265V10.5841H85.968V12.7234H88.0866V14.9753H90.4281V17.3398H92.4352V19.4791H92.7697V24.7711H94.9997V34.0039H92.8812V40.8722H90.6511V45.4886H88.3096V47.8531H85.968V50.1051H83.6265V52.2444H81.2849V49.9925H83.6265V47.628H85.968V45.376H88.3096V40.647H90.6511V33.8913H92.7697V24.9963H90.4281V27.2482H88.3096V29.5001H86.0795V27.2482H84.2955V24.8837H82.9575V21.9562V19.4791V17.3398H85.4105V19.4791H86.7485V21.6184H88.5326V19.7043V19.4791V17.3398H88.0866H85.968V12.9486H83.6265V10.6967H81.1734V8.44475H78.8319V6.19284H75.4868V4.05353ZM81.2849 52.2444V54.4963H75.7098V56.7482H70.4692V58.8875H49.6183V56.7482H70.3577V54.4963H75.5983V52.2444H81.2849ZM78.6089 27.2482H75.9328V29.3875H73.8143V33.8913H75.9328V34.4543L77.4938 36.0306H82.7345C83.4119 36.0306 83.961 35.4761 83.961 34.7921V33.8913H85.968V31.6394H84.0725V29.3875H78.6089V27.2482ZM78.6089 29.3875V31.6394H83.961V33.8913H75.9328V29.3875H78.6089ZM45.0467 54.4963H49.5068V56.523H45.0467V54.4963ZM44.9352 52.2444H42.4821V49.9925H44.7122V47.628H42.4821V49.9925H38.022V47.7405H40.2521V45.376H38.022V47.7405H35.9035V49.9925H38.022V52.2444H40.6981V54.4963H44.9352V52.2444ZM42.4821 40.7596H40.2521V43.2367H42.4821V40.7596ZM33.4504 36.481H35.792V38.9581H33.4504V36.481ZM35.792 24.7711H33.5619V31.4142H35.9035V36.2558H38.022H40.2521V38.6203H42.2591V36.2558V34.0039H44.7122V31.6394H42.2591V33.8913H38.022V29.3875H42.2591V27.2482H37.9105V29.3875H35.9035V24.8837H38.1335V22.7444H40.3636V24.8837H44.6007V27.3608H47.0537V24.8837H44.7122V22.7444H42.2591V20.3799H38.022V22.6318H35.792V24.7711ZM47.0537 19.3665H49.5068V21.731H47.0537V19.3665ZM37.9105 15.0879H40.2521V17.3398H38.022V19.4791H35.6805V17.2272H37.9105V15.0879ZM47.0537 12.836H49.3953V15.0879H47.0537V12.836ZM54.0784 15.0879H51.7368V17.3398H54.0784V15.0879ZM47.1652 6.19284H49.5068V8.44475H47.1652V6.19284ZM56.4199 4.05353H54.0784V6.30544H56.4199V4.05353ZM56.3084 25.3341V27.3608H58.2039V29.5001H60.657H62.5525H65.1171V25.4467H65.6746H67.0126H67.6816V19.4791H67.0126V17.2272H65.0056V15.0879H60.657H58.2039V17.3398H56.3084V19.4791H54.0784V25.3341H56.3084ZM60.657 17.3398V19.4791H62.5525V21.6184H65.0056V17.3398H60.657ZM18.6206 23.8703H20.6276V26.1222H18.6206V23.8703ZM24.8647 19.4791H22.5232V21.6184H24.8647V19.4791ZM53.9668 43.1241H51.7368V45.4886H53.9668V43.1241ZM54.0784 47.7405H56.3084V50.1051H54.0784V47.7405ZM66.9011 52.2444H64.6711V54.6089H66.9011V52.2444ZM51.7368 52.1318H53.9668V54.4963H51.7368V52.1318ZM49.5068 49.9925H47.1652V52.2444H49.5068V49.9925Z" fill="#010529"/>
<path fill-rule="evenodd" clip-rule="evenodd" d="M78.6092 27.248H81.7312V29.3874H78.6092V27.248ZM78.6092 31.6393V29.3874H75.9331V31.6393H78.6092ZM78.6092 31.6393V33.8912H81.7312V31.6393H78.6092Z" fill="#FB915F"/>
<path d="M78.6092 31.6396H75.9331V33.8916H78.6092V31.6396Z" fill="#9C4987"/>
<path fill-rule="evenodd" clip-rule="evenodd" d="M31.2207 34.1167H33.4507V36.7064H31.2207V34.1167ZM56.3087 54.4965H64.1139V56.7484H56.3087V54.4965ZM62.5529 50.1052H58.3158V52.3572H62.5529V50.1052ZM67.905 54.4965H70.358V56.7484H67.905V54.4965ZM75.5986 52.2446H73.1456V54.4965H75.5986V52.2446Z" fill="#59A6C7"/>
</g>
</g>
<defs>
<clipPath id="clip0_268_2">
<rect width="95" height="59" fill="white"/>
</clipPath>
</defs>
</svg>
